<?xml version="1.0" encoding="UTF-8"?>
<!-- 0x2B2B -->
<svg xmlns:dc="http://purl.org/dc/elements/1.1/"
   xmlns:cc="http://creativecommons.org/ns#"
   xmlns:rdf="http://www.w3.org/1999/02/22-rdf-syntax-ns#"
   xmlns:svg="http://www.w3.org/2000/svg"
   xmlns="http://www.w3.org/2000/svg"
   xmlns:sodipodi="http://sodipodi.sourceforge.net/DTD/sodipodi-0.dtd"
   xmlns:inkscape="http://www.inkscape.org/namespaces/inkscape" width="214.83mm" height="194.38mm" version="1.1" viewBox="0 0 214.83008 194.38476" id="svg40" sodipodi:docname="2bytes_logo.svg" inkscape:version="0.92.3 (2405546, 2018-03-11)">
   <g transform="translate(-3.6426 -33.863)" id="g38">
      <path d="m52.623 76.953c-3.4707 6.0117-6.9414 12.023-10.412 18.035h-20.824c-3.4707-6.0117-6.9414-12.023-10.412-18.035 3.4707-6.0117 6.9414-12.023 10.412-18.035h20.824c3.2153-3.7902-4.4153-1.3185-6.5507-2.0195h-15.44c-3.8594 6.6849-7.7188 13.37-11.578 20.055 3.8594 6.6849 7.7187 13.37 11.578 20.055h23.156c3.8614-6.6841 7.7198-13.37 11.58-20.055" id="path2" />
      <path d="m 82.693,56.898 h 23.156 c 3.86,6.6849 7.72,13.37 11.58,20.055 -3.8602,6.6848 -7.7187,13.371 -11.58,20.055 -2.7018,-2.9008 1.8269,-5.8016 2.6922,-8.7025 2.1846,-3.7841 4.3693,-7.5682 6.5539,-11.352 -3.4707,-6.0117 -6.9414,-12.023 -10.412,-18.035 h -20.824 m -6.5538,24.717891 c 2.1846,3.7841 4.3693,7.5682 6.5539,11.352 -0.38867,0.67318 -0.77734,1.3464 -1.166,2.0195 l -1e-4,6.09e-4 c -3.8594,-6.6849 -7.7188,-13.37 -11.578,-20.055 0.970439,-0.223436 1.448138,0.06405 2.280142,0.0018 M 83.8591,58.9185 c -0.38867,-0.67318 -0.77734,-1.3464 -1.166,-2.0195" id="path4" inkscape:connector-curvature="0" sodipodi:nodetypes="cccccccccccccccc" />
      <path d="M 42.211,58.918 52.623,40.883 h 20.824 l 10.412,18.035 2.3347,-5e-4 c -3.86,-6.6849 -7.7201,-13.37 -11.58,-20.055 h -23.156 c -3.8594,6.6849 -7.7188,13.37 -11.578,20.055 M 73.447,76.953 H 52.623 c -3.2153,3.7902 4.4153,1.3185 6.5507,2.0195 h 15.44 z" id="path6" inkscape:connector-curvature="0" sodipodi:nodetypes="ccccccccccccc" />
      <path d="m71.115 113.02c3.8594-6.6849 7.7188-13.37 11.578-20.055 2.7018 2.9008-1.8269 5.8016-2.6922 8.7025-2.1846 3.7841-4.3693 7.5682-6.5539 11.352m10.412 18.035h20.824c3.4707-6.0117 6.9414-12.023 10.412-18.035-3.4707-6.0117-6.9414-12.023-10.412-18.035 1.6748-4.6796 3.3498 3.1644 5.0247 4.6631 2.5738 4.4574 5.1476 8.9147 7.7214 13.372-3.8602 6.6848-7.7187 13.371-11.58 20.055h-23.156" id="path8" />
      <path d="m52.623 149.09c-3.4707-6.0111-6.9414-12.022-10.412-18.033 3.4707-6.0117 6.9414-12.023 10.412-18.035h20.824c3.2153-3.7902-4.4153-1.3185-6.5507-2.0195h-15.44c-3.8594 6.6849-7.7188 13.37-11.578 20.055 3.8594 6.6849 7.7188 13.37 11.578 20.055 0.38867-0.67383 0.77734-1.3476 1.166-2.0215zm21.99 2.0215c3.8614-6.6841 7.7198-13.37 11.58-20.055-3.8643-0.89039-4.1125 4.4821-6.192 6.6831-2.1841 3.7834-4.3681 7.5668-6.5522 11.35 0.38802 0.67383 0.77604 1.3476 1.1641 2.0215z" id="path10" />
      <path d="m86.193 167.12c-3.86-6.6849-7.7201-13.37-11.58-20.055-2.7015 2.9022 1.8261 5.8028 2.6925 8.7042 2.1845 3.7835 4.3691 7.567 6.5536 11.35h2.334zm-12.744 18.035h-20.826c-3.4707-6.0117-6.9414-12.023-10.412-18.035 3.4707-6.0111 6.9414-12.022 10.412-18.033-1.6735-4.6826-3.3495 3.1615-5.0242 4.6614-2.5733 4.4573-5.1466 8.9145-7.7199 13.372 3.8594 6.6849 7.7188 13.37 11.578 20.055h23.156c-0.38802-0.67318-0.77604-1.3464-1.1641-2.0195z" id="path12" />
      <path d="m104.69 203.19h-20.826c-3.4707-6.0117-6.9414-12.023-10.412-18.035-4.8901-0.88945 1.0656 4.4831 1.5262 6.6829 2.5733 4.4573 5.1466 8.9145 7.7199 13.372h23.156c-0.38802-0.67318-0.77604-1.3464-1.1641-2.0195zm12.744-18.035c-3.86-6.6849-7.72-13.37-11.58-20.055h-23.156c1.1596 3.7924 5.9374 1.3207 8.8827 2.0215h13.108c3.4707 6.0111 6.9414 12.022 10.412 18.033h2.334z" id="path14" />
      <path d="m102.88 203.19c3.8594 6.6849 7.7188 13.37 11.578 20.055h23.158c3.8595-6.6848 7.7187-13.37 11.578-20.055-3.8594-6.6849-7.7188-13.37-11.578-20.055h-23.158c0.95968 2.5157 0.66107 2.0076 1.7657 2.0805 2.08 0.13735 6.1811-0.0318 7.117-0.061h13.108c3.4714 6.0117 6.9427 12.023 10.414 18.035l-10.412 18.035h-20.826c-3.4707-6.0117-6.9414-12.023-10.412-18.035z" id="path16" />
      <g transform="translate(-27.831 3.2891)" id="g36">
         <path d="m167.25 75.684c3.8595-6.6848 7.7187-13.37 11.578-20.055-3.8594-6.6849-7.7188-13.37-11.578-20.055h-23.158c-3.8594 6.6849-7.7188 13.37-11.578 20.055 3.8594 6.6849 7.7188 13.37 11.578 20.055 2.7018-2.9008-1.8269-5.8016-2.6922-8.7025-2.1846-3.7841-4.3693-7.5682-6.5539-11.352 3.4707-6.0117 6.9414-12.023 10.412-18.035h20.824c3.4714 6.0117 6.9427 12.023 10.414 18.035-3.4714 6.0117-6.9427 12.023-10.414 18.035 0.38932 0.67318 0.77865 1.3464 1.168 2.0195z" id="path18" />
         <path d="m178.83 91.697c-3.86-6.6849-7.72-13.37-11.58-20.055-2.7015 2.9022 1.8261 5.8028 2.6925 8.7042 2.1845 3.7835 4.3691 7.567 6.5536 11.35h2.334zm-33.57 18.035c-3.4707-6.0117-6.9414-12.023-10.412-18.035 3.4707-6.0111 6.9414-12.022 10.412-18.033-1.6736-4.6826-3.3495 3.1615-5.0242 4.6614-2.5733 4.4573-5.1466 8.9145-7.7199 13.372 3.8594 6.6849 7.7188 13.37 11.578 20.055 0.38867-0.67318 0.77735-1.3464 1.166-2.0195z" id="path20" />
         <path d="m144.09 107.71c-3.8594 6.6849-7.7188 13.37-11.578 20.055 3.8594 6.6849 7.7188 13.37 11.578 20.055 2.7015-2.9022-1.8261-5.8028-2.6925-8.7042-2.1845-3.7835-4.3691-7.567-6.5536-11.35 3.4707-6.0117 6.9414-12.023 10.412-18.035-0.38867-0.67318-0.77735-1.3464-1.166-2.0195zm23.156 40.109c3.8614-6.6841 7.7198-13.37 11.58-20.055-3.8643-0.89039-4.1125 4.4821-6.192 6.6831-2.184 3.7834-4.3681 7.5668-6.5522 11.35 0.38802 0.67383 0.77604 1.3476 1.1641 2.0215z" id="path22" />
         <g transform="translate(135.97 47.574)" id="g26">
            <path d="M 61.348,80.193 H 40.524 c -3.2153,3.7902 4.4153,1.3185 6.5507,2.0195 h 15.44 m 11.58,-20.055 c -3.86,-6.6849 -7.7201,-13.37 -11.58,-20.055 h -23.156 c 1.1613,3.7902 5.9379,1.3185 8.8827,2.0195 h 13.108 l 10.412,18.035 z" id="path24" inkscape:connector-curvature="0" sodipodi:nodetypes="ccccccccccc" />
         </g>
         <path d="m206.57 107.71h23.156c3.86 6.6849 7.72 13.37 11.58 20.055-3.8602 6.6848-7.7187 13.371-11.58 20.055-2.7018-2.9008 1.8269-5.8016 2.6922-8.7024 2.1846-3.7841 4.3693-7.5682 6.5539-11.352-3.4707-6.0117-6.9414-12.023-10.412-18.035h-20.824m-1.166 38.09c-3.8594-6.6849-7.7188-13.37-11.578-20.055 3.8631-0.88945 4.1108 4.4831 6.1902 6.6829 2.1846 3.7841 4.3693 7.5682 6.5539 11.352-0.38867 0.67318-0.77735 1.3464-1.166 2.0195zm1.166-38.09c-0.38867-0.67318-0.77735-1.3464-1.166-2.0195" id="path28" />
         <path d="m194.99 163.84c3.8594-6.6849 7.7188-13.37 11.578-20.055 2.7018 2.9008-1.8269 5.8016-2.6922 8.7025-2.1846 3.7841-4.3693 7.5682-6.5539 11.352m10.412 18.035h20.824c3.4707-6.0117 6.9414-12.023 10.412-18.035-3.4707-6.0117-6.9414-12.023-10.412-18.035 1.6748-4.6796 3.3498 3.1644 5.0247 4.6631 2.5738 4.4574 5.1476 8.9147 7.7214 13.372-3.8602 6.6848-7.7187 13.371-11.58 20.055h-23.156" id="path30" />
         <path d="m207.73 181.87c-3.4707 6.0117-6.9414 12.023-10.412 18.035h-20.824c-3.4707-6.0117-6.9414-12.023-10.412-18.035-3.7325-0.95961 0.36401 4.6234 1.5262 6.6829l7.7199 13.372h23.156c3.8614-6.6841 7.7198-13.37 11.58-20.055m-33.57-18.035h20.824c3.2153-3.7902-4.4153-1.3185-6.5507-2.0195h-15.44c0.38867 0.67318 0.77734 1.3464 1.166 2.0195z" id="path32" />
         <path d="m178.83 163.84c-3.86-6.6849-7.72-13.37-11.58-20.055-2.7015 2.9022 1.8261 5.8028 2.6925 8.7042l6.5536 11.35zm-13.598 16.468-19.973 1.5669c-3.4707-6.0117-6.9414-12.023-10.412-18.035 3.4707-6.0111 6.9414-12.022 10.412-18.033-1.6736-4.6826-3.3495 3.1615-5.0242 4.6614-2.5733 4.4573-5.1466 8.9145-7.7199 13.372 3.8594 6.6849 7.7188 13.37 11.578 20.055h23.156c-0.38802-0.67318-1.6296-2.9132-2.0176-3.5864z" id="path34" />
      </g>
   </g>
</svg>
