<?xml version="1.0" encoding="UTF-8" standalone="no"?>
<!-- Hi, I didn't expect to see anyone poking around in here. These image was made by Hamid Elaosta for https://2byt.es -->

<svg
   xmlns:dc="http://purl.org/dc/elements/1.1/"
   xmlns:cc="http://creativecommons.org/ns#"
   xmlns:rdf="http://www.w3.org/1999/02/22-rdf-syntax-ns#"
   xmlns:svg="http://www.w3.org/2000/svg"
   xmlns="http://www.w3.org/2000/svg"
   xmlns:sodipodi="http://sodipodi.sourceforge.net/DTD/sodipodi-0.dtd"
   xmlns:inkscape="http://www.inkscape.org/namespaces/inkscape"
   width="85.183731mm"
   height="77.792198mm"
   viewBox="0 0 85.183731 77.792198"
   version="1.1"
   id="svg8"
   inkscape:version="0.92.3 (2405546, 2018-03-11)"
   sodipodi:docname="2bytes_logo.svg">
  <defs
     id="defs2" />
  <sodipodi:namedview
     id="base"
     pagecolor="#ffffff"
     bordercolor="#666666"
     borderopacity="1.0"
     inkscape:pageopacity="0.0"
     inkscape:pageshadow="2"
     inkscape:zoom="2.8"
     inkscape:cx="144.11486"
     inkscape:cy="155.20023"
     inkscape:document-units="mm"
     inkscape:current-layer="layer1"
     showgrid="false"
     inkscape:window-width="3840"
     inkscape:window-height="2104"
     inkscape:window-x="7680"
     inkscape:window-y="0"
     inkscape:window-maximized="1"
     inkscape:pagecheckerboard="true"
     fit-margin-top="0"
     fit-margin-left="0"
     fit-margin-right="0"
     fit-margin-bottom="0" />
  <metadata
     id="metadata5">
    <rdf:RDF>
      <cc:Work
         rdf:about="">
        <dc:format>image/svg+xml</dc:format>
        <dc:type
           rdf:resource="http://purl.org/dc/dcmitype/StillImage" />
        <dc:title></dc:title>
      </cc:Work>
    </rdf:RDF>
  </metadata>
  <g
     inkscape:label="Layer 1"
     inkscape:groupmode="layer"
     id="layer1"
     transform="translate(-57.943743,-97.83294)">
    <path
       style="fill:#000000;fill-opacity:1;stroke:none;stroke-width:0.26458332"
       d="m 100.50602,172.12105 -2.020022,-3.50066 -4.507423,-0.0723 -4.507423,-0.0723 -2.29095,-3.95643 -2.290951,-3.95644 -4.50129,-0.0723 -4.50129,-0.0723 -2.224589,-3.79968 c -1.223524,-2.08983 -2.224589,-3.9546 -2.224589,-4.14395 0,-0.18934 0.962317,-2.01291 2.138481,-4.05237 l 2.13848,-3.70811 -2.13848,-3.68911 c -1.176164,-2.02902 -2.132865,-3.85341 -2.126001,-4.0542 0.0069,-0.2008 1.049453,-2.15102 2.316866,-4.33383 l 2.304387,-3.96875 4.566142,-0.1323 4.566142,-0.13229 1.964801,-3.43958 1.964799,-3.43958 -0.459701,-0.79375 c -0.252835,-0.43657 -1.167476,-2.01696 -2.032534,-3.51198 l -1.572837,-2.71823 -4.230761,0.0724 -4.230761,0.0724 -2.107993,3.63802 -2.107993,3.63802 H 67.454805 62.51908 l -2.287668,-3.96194 c -1.258218,-2.17907 -2.287669,-4.04363 -2.287669,-4.14346 0,-0.0998 1.023084,-1.94837 2.27352,-4.10785 l 2.27352,-3.92633 h 4.586247 c 3.446983,0 4.607496,-0.0822 4.671792,-0.33073 0.04705,-0.1819 1.023439,-1.97041 2.169751,-3.97447 l 2.084205,-3.64373 4.891975,0.07186 4.891973,0.07186 2.251416,3.9026 2.251417,3.90261 h 3.887758 3.887761 l 2.244632,-3.90261 2.24462,-3.9026 4.88608,-0.07176 4.88607,-0.07176 2.24353,3.89062 c 1.23394,2.13983 2.28079,4.04097 2.32634,4.22474 0.0455,0.18378 -0.89952,2.02492 -2.10015,4.09143 l -2.18296,3.7573 0.61696,1.08555 c 0.33933,0.59705 1.26157,2.18687 2.04943,3.53294 l 1.43248,2.4474 h 4.46621 4.46621 l 2.19909,3.83174 2.19908,3.83175 4.43506,0.005 4.43506,0.005 0.88038,1.38906 c 0.48421,0.76398 1.4493,2.43898 2.14464,3.72222 1.15493,2.13136 1.25416,2.45505 1.14739,3.74253 -0.0691,0.83266 -0.29837,1.59087 -0.56043,1.85293 -0.24396,0.24396 -0.44356,0.60515 -0.44356,0.80264 0,0.19749 -0.14882,0.52131 -0.33073,0.7196 -0.1819,0.19829 -0.77193,1.19641 -1.31118,2.21804 l -0.98045,1.85752 1.84035,3.22054 c 2.36113,4.13189 2.37658,4.45155 0.38514,7.96872 -0.80037,1.41356 -1.45521,2.71136 -1.45521,2.88399 0,0.17264 -0.1168,0.31388 -0.25954,0.31388 -0.14275,0 -0.33425,0.29766 -0.42556,0.66146 l -0.16602,0.66146 h -4.53989 -4.5399 l -2.25468,3.9026 -2.25468,3.90261 -4.402,0.0725 -4.402,0.0725 -2.07005,3.56186 -2.07005,3.56187 -5.15938,-10e-4 -5.15937,-0.001 -2.02002,-3.50066 z m 13.72783,-0.32012 c 1.05502,-1.81092 1.91823,-3.40259 1.91823,-3.53705 0,-0.13446 -0.96969,-1.92496 -2.15486,-3.97888 l -2.15485,-3.7344 h -4.33003 c -3.80341,0 -4.37845,-0.0566 -4.72816,-0.46499 -0.21898,-0.25575 -1.3257,-2.07145 -2.45939,-4.0349 l -2.061251,-3.5699 -4.351044,-0.0739 -4.351043,-0.0739 -2.050521,-3.59467 c -1.127787,-1.97707 -2.050521,-3.78997 -2.050521,-4.02867 0,-0.2387 0.922734,-2.04066 2.050521,-4.00435 l 2.050521,-3.57036 4.364683,-0.13229 4.36468,-0.13229 2.210495,-3.79015 2.2105,-3.79015 -2.14341,-3.71456 c -1.178873,-2.04301 -2.143407,-3.84171 -2.143407,-3.99711 0,-0.1554 0.955099,-1.97017 2.122437,-4.03282 l 2.12245,-3.75027 -2.14345,-3.74216 -2.143442,-3.74216 H 94.07169 89.760392 l -2.251364,-3.9026 -2.25136,-3.902604 -4.362561,-0.07239 -4.36256,-0.07239 -2.084506,3.644264 c -1.146478,2.00435 -2.123002,3.79309 -2.170052,3.975 -0.06429,0.24856 -1.22432,0.33072 -4.669347,0.33072 h -4.583801 l -2.178707,3.74999 c -1.644839,2.83108 -2.116685,3.85221 -1.925594,4.16718 0.139213,0.22947 1.123854,1.93526 2.188091,3.79065 l 1.934978,3.37343 h 4.410277 4.410278 l 2.180863,-3.77031 2.180862,-3.77031 4.668958,0.0408 4.66896,0.0408 2.061352,3.53107 c 1.133745,1.94208 2.06298,3.75205 2.06497,4.02215 0.0021,0.2701 -0.90148,2.08304 -2.007708,4.02876 l -2.011326,3.53768 -4.535876,0.0723 -4.535877,0.0723 -2.162303,3.70417 c -1.189267,2.03729 -2.172089,3.85496 -2.18405,4.03927 -0.01196,0.1843 0.87129,1.87138 1.962779,3.74906 1.091488,1.87768 2.049274,3.5827 2.128413,3.78893 0.07914,0.20623 -0.849874,2.09103 -2.064472,4.18843 l -2.20836,3.81348 2.171464,3.70416 2.171464,3.70417 4.502071,0.0723 4.50207,0.0723 2.29095,3.95643 2.290951,3.95643 4.507423,0.0723 4.507423,0.0723 2.020015,3.50067 2.02002,3.50066 4.63021,5.3e-4 4.63021,5.3e-4 1.91823,-3.29257 z m 13.28057,-7.87689 2.25466,-3.90261 h 4.56858 c 3.22222,0 4.56858,-0.0882 4.56858,-0.29926 0,-0.16459 0.83344,-1.75633 1.85209,-3.5372 1.01864,-1.78087 1.85208,-3.49229 1.85208,-3.80316 0,-0.31087 -0.83344,-2.02766 -1.85208,-3.81509 -1.01865,-1.78743 -1.85209,-3.4505 -1.85209,-3.69571 0,-0.53029 1.05091,-2.82584 1.52136,-3.32317 0.1819,-0.19229 0.33073,-0.51121 0.33073,-0.7087 0,-0.19749 0.14882,-0.51947 0.33073,-0.7155 0.52845,-0.56951 1.52289,-2.67744 1.52209,-3.22641 -8e-4,-0.52539 -1.83791,-4.06177 -3.34712,-6.44299 l -0.88038,-1.38906 -4.43506,-0.005 -4.43506,-0.005 -2.21167,-3.85358 -2.21168,-3.85358 -4.42975,0.088 -4.42975,0.088 -2.15597,-3.72977 c -1.18578,-2.05137 -2.15597,-3.84009 -2.15597,-3.97493 0,-0.13483 0.9525,-1.8917 2.11667,-3.90415 1.16417,-2.01245 2.11667,-3.73006 2.11667,-3.8169 0,-0.0868 -0.97995,-1.86331 -2.17767,-3.94772 l -2.17767,-3.789817 -4.35565,0.07227 -4.35565,0.07227 -2.13737,3.704167 -2.137375,3.70417 2.188405,3.74732 c 1.20361,2.06103 2.18839,3.9294 2.18839,4.15193 0,0.22253 -0.77817,1.73532 -1.72927,3.36175 -0.9511,1.62643 -1.89578,3.27915 -2.099295,3.6727 -0.353724,0.68403 -0.277664,0.87788 1.726545,4.4003 1.15311,2.02661 2.09779,3.83839 2.09929,4.02617 0.002,0.18779 -0.94977,1.99868 -2.11393,4.0242 -1.16417,2.02553 -2.11667,3.77122 -2.11667,3.8793 0,0.10809 0.892969,1.76714 1.98438,3.68679 1.0914,1.91965 1.98437,3.67163 1.98437,3.89328 0,0.22164 -0.89297,1.93971 -1.98437,3.81791 -1.091411,1.8782 -1.981353,3.52518 -1.977654,3.65996 0.0037,0.13478 0.931582,1.8524 2.061954,3.81693 l 2.05524,3.57188 4.33524,0.0729 c 2.38439,0.0401 4.47789,0.19131 4.65223,0.336 0.17434,0.14469 1.31004,1.98993 2.52378,4.10054 l 2.20681,3.83747 4.23181,-0.0724 4.23181,-0.0724 z M 114.06277,148.6435 c -1.17922,-2.03776 -2.14403,-3.81597 -2.14403,-3.95159 0,-0.13562 0.97733,-1.92117 2.17183,-3.9679 l 2.17183,-3.72133 4.64119,0.005 4.64119,0.005 2.05053,3.55409 c 1.12778,1.95475 2.05052,3.81153 2.05052,4.12619 0,0.31465 -0.92045,2.1659 -2.04543,4.11389 l -2.04543,3.54179 h -4.67409 -4.67409 z m 13.02089,-0.38746 2.05785,-3.56331 -2.06295,-3.57551 -2.06294,-3.5755 -4.11194,-0.005 -4.11193,-0.005 -1.89131,3.24114 c -1.04022,1.78263 -1.96146,3.42521 -2.04721,3.65017 -0.0922,0.2418 0.66914,1.83732 1.86214,3.90261 l 2.01804,3.49358 h 4.1462 4.1462 z m -26.78048,0.0211 2.01048,-3.52272 -2.01048,-3.60591 -2.010478,-3.60592 -4.101042,0.0608 -4.101042,0.0608 -2.023266,3.52288 -2.023263,3.52288 2.023263,3.55187 2.023266,3.55187 4.101042,-0.007 4.101042,-0.007 2.010478,-3.52273 z"
       id="path4599"
       inkscape:connector-curvature="0" />
  </g>
</svg>
